<mxfile host="app.diagrams.net" agent="Mozilla/5.0 (Windows NT 10.0; Win64; x64) AppleWebKit/537.36 (KHTML, like Gecko) Chrome/134.0.0.0 Safari/537.36" version="26.1.1">
  <diagram id="hiayzfrdStiPVlL_BNit" name="Page-1">
    <mxGraphModel dx="941" dy="510" grid="1" gridSize="10" guides="1" tooltips="1" connect="1" arrows="1" fold="1" page="1" pageScale="1" pageWidth="850" pageHeight="1100" math="0" shadow="0">
      <root>
        <mxCell id="0" />
        <mxCell id="1" parent="0" />
        <mxCell id="YAOJpmCHKWJ_MzP8N5ak-2" value="0" style="rounded=1;whiteSpace=wrap;html=1;fillColor=#d5e8d4;strokeColor=#82b366;" vertex="1" parent="1">
          <mxGeometry x="160" y="400" width="20" height="20" as="geometry" />
        </mxCell>
        <mxCell id="YAOJpmCHKWJ_MzP8N5ak-3" value="1" style="rounded=1;whiteSpace=wrap;html=1;fillColor=#d5e8d4;strokeColor=#82b366;" vertex="1" parent="1">
          <mxGeometry x="180" y="400" width="20" height="20" as="geometry" />
        </mxCell>
        <mxCell id="YAOJpmCHKWJ_MzP8N5ak-5" value="2" style="rounded=1;whiteSpace=wrap;html=1;fillColor=#d5e8d4;strokeColor=#82b366;" vertex="1" parent="1">
          <mxGeometry x="200" y="400" width="20" height="20" as="geometry" />
        </mxCell>
        <mxCell id="YAOJpmCHKWJ_MzP8N5ak-6" value="&lt;div&gt;3&lt;/div&gt;" style="rounded=1;whiteSpace=wrap;html=1;fillColor=#d5e8d4;strokeColor=#82b366;" vertex="1" parent="1">
          <mxGeometry x="220" y="400" width="20" height="20" as="geometry" />
        </mxCell>
        <mxCell id="YAOJpmCHKWJ_MzP8N5ak-11" value="4" style="rounded=1;whiteSpace=wrap;html=1;fillColor=#d5e8d4;strokeColor=#82b366;" vertex="1" parent="1">
          <mxGeometry x="240" y="400" width="20" height="20" as="geometry" />
        </mxCell>
        <mxCell id="YAOJpmCHKWJ_MzP8N5ak-12" value="5" style="rounded=1;whiteSpace=wrap;html=1;fillColor=#d5e8d4;strokeColor=#82b366;" vertex="1" parent="1">
          <mxGeometry x="260" y="400" width="20" height="20" as="geometry" />
        </mxCell>
        <mxCell id="YAOJpmCHKWJ_MzP8N5ak-13" value="7" style="rounded=1;whiteSpace=wrap;html=1;fillColor=#d5e8d4;strokeColor=#82b366;" vertex="1" parent="1">
          <mxGeometry x="300" y="400" width="20" height="20" as="geometry" />
        </mxCell>
        <mxCell id="YAOJpmCHKWJ_MzP8N5ak-14" value="8" style="rounded=1;whiteSpace=wrap;html=1;fillColor=#d5e8d4;strokeColor=#82b366;" vertex="1" parent="1">
          <mxGeometry x="320" y="400" width="20" height="20" as="geometry" />
        </mxCell>
        <mxCell id="YAOJpmCHKWJ_MzP8N5ak-17" value="9" style="rounded=1;whiteSpace=wrap;html=1;fillColor=#d5e8d4;strokeColor=#82b366;" vertex="1" parent="1">
          <mxGeometry x="340" y="400" width="20" height="20" as="geometry" />
        </mxCell>
        <mxCell id="YAOJpmCHKWJ_MzP8N5ak-18" value="10" style="rounded=1;whiteSpace=wrap;html=1;fillColor=#d5e8d4;strokeColor=#82b366;" vertex="1" parent="1">
          <mxGeometry x="360" y="400" width="20" height="20" as="geometry" />
        </mxCell>
        <mxCell id="YAOJpmCHKWJ_MzP8N5ak-19" value="11" style="rounded=1;whiteSpace=wrap;html=1;fillColor=#d5e8d4;strokeColor=#82b366;" vertex="1" parent="1">
          <mxGeometry x="380" y="400" width="20" height="20" as="geometry" />
        </mxCell>
        <mxCell id="YAOJpmCHKWJ_MzP8N5ak-20" value="12" style="rounded=1;whiteSpace=wrap;html=1;fillColor=#d5e8d4;strokeColor=#82b366;" vertex="1" parent="1">
          <mxGeometry x="400" y="400" width="20" height="20" as="geometry" />
        </mxCell>
        <mxCell id="YAOJpmCHKWJ_MzP8N5ak-24" value="13" style="rounded=1;whiteSpace=wrap;html=1;fillColor=#d5e8d4;strokeColor=#82b366;" vertex="1" parent="1">
          <mxGeometry x="420" y="400" width="20" height="20" as="geometry" />
        </mxCell>
        <mxCell id="YAOJpmCHKWJ_MzP8N5ak-25" value="14" style="rounded=1;whiteSpace=wrap;html=1;fillColor=#d5e8d4;strokeColor=#82b366;" vertex="1" parent="1">
          <mxGeometry x="440" y="400" width="20" height="20" as="geometry" />
        </mxCell>
        <mxCell id="YAOJpmCHKWJ_MzP8N5ak-26" value="15" style="rounded=1;whiteSpace=wrap;html=1;fillColor=#d5e8d4;strokeColor=#82b366;" vertex="1" parent="1">
          <mxGeometry x="460" y="400" width="20" height="20" as="geometry" />
        </mxCell>
        <mxCell id="YAOJpmCHKWJ_MzP8N5ak-27" value="16" style="rounded=1;whiteSpace=wrap;html=1;fillColor=#d5e8d4;strokeColor=#82b366;" vertex="1" parent="1">
          <mxGeometry x="480" y="400" width="20" height="20" as="geometry" />
        </mxCell>
        <mxCell id="YAOJpmCHKWJ_MzP8N5ak-43" value="6" style="rounded=1;whiteSpace=wrap;html=1;fillColor=#d5e8d4;strokeColor=#82b366;" vertex="1" parent="1">
          <mxGeometry x="280" y="400" width="20" height="20" as="geometry" />
        </mxCell>
        <mxCell id="YAOJpmCHKWJ_MzP8N5ak-45" value="Preamble" style="rounded=1;whiteSpace=wrap;html=1;fillColor=#fff2cc;strokeColor=#d6b656;" vertex="1" parent="1">
          <mxGeometry x="160" y="420" width="80" height="30" as="geometry" />
        </mxCell>
        <mxCell id="YAOJpmCHKWJ_MzP8N5ak-46" value="Aux data" style="rounded=1;whiteSpace=wrap;html=1;fillColor=#ffe6cc;strokeColor=#d79b00;" vertex="1" parent="1">
          <mxGeometry x="240" y="420" width="80" height="30" as="geometry" />
        </mxCell>
        <mxCell id="YAOJpmCHKWJ_MzP8N5ak-49" value="Audio data" style="rounded=1;whiteSpace=wrap;html=1;fillColor=#ffe6cc;strokeColor=#d79b00;" vertex="1" parent="1">
          <mxGeometry x="320" y="420" width="400" height="30" as="geometry" />
        </mxCell>
        <mxCell id="YAOJpmCHKWJ_MzP8N5ak-51" value="17" style="rounded=1;whiteSpace=wrap;html=1;fillColor=#d5e8d4;strokeColor=#82b366;" vertex="1" parent="1">
          <mxGeometry x="500" y="400" width="20" height="20" as="geometry" />
        </mxCell>
        <mxCell id="YAOJpmCHKWJ_MzP8N5ak-52" value="18" style="rounded=1;whiteSpace=wrap;html=1;fillColor=#d5e8d4;strokeColor=#82b366;" vertex="1" parent="1">
          <mxGeometry x="520" y="400" width="20" height="20" as="geometry" />
        </mxCell>
        <mxCell id="YAOJpmCHKWJ_MzP8N5ak-53" value="19" style="rounded=1;whiteSpace=wrap;html=1;fillColor=#d5e8d4;strokeColor=#82b366;" vertex="1" parent="1">
          <mxGeometry x="540" y="400" width="20" height="20" as="geometry" />
        </mxCell>
        <mxCell id="YAOJpmCHKWJ_MzP8N5ak-54" value="20" style="rounded=1;whiteSpace=wrap;html=1;fillColor=#d5e8d4;strokeColor=#82b366;" vertex="1" parent="1">
          <mxGeometry x="560" y="400" width="20" height="20" as="geometry" />
        </mxCell>
        <mxCell id="YAOJpmCHKWJ_MzP8N5ak-55" value="21" style="rounded=1;whiteSpace=wrap;html=1;fillColor=#d5e8d4;strokeColor=#82b366;" vertex="1" parent="1">
          <mxGeometry x="580" y="400" width="20" height="20" as="geometry" />
        </mxCell>
        <mxCell id="YAOJpmCHKWJ_MzP8N5ak-56" value="22" style="rounded=1;whiteSpace=wrap;html=1;fillColor=#d5e8d4;strokeColor=#82b366;" vertex="1" parent="1">
          <mxGeometry x="600" y="400" width="20" height="20" as="geometry" />
        </mxCell>
        <mxCell id="YAOJpmCHKWJ_MzP8N5ak-57" value="23" style="rounded=1;whiteSpace=wrap;html=1;fillColor=#d5e8d4;strokeColor=#82b366;" vertex="1" parent="1">
          <mxGeometry x="620" y="400" width="20" height="20" as="geometry" />
        </mxCell>
        <mxCell id="YAOJpmCHKWJ_MzP8N5ak-58" value="24" style="rounded=1;whiteSpace=wrap;html=1;fillColor=#d5e8d4;strokeColor=#82b366;" vertex="1" parent="1">
          <mxGeometry x="640" y="400" width="20" height="20" as="geometry" />
        </mxCell>
        <mxCell id="YAOJpmCHKWJ_MzP8N5ak-60" value="25" style="rounded=1;whiteSpace=wrap;html=1;fillColor=#d5e8d4;strokeColor=#82b366;" vertex="1" parent="1">
          <mxGeometry x="660" y="400" width="20" height="20" as="geometry" />
        </mxCell>
        <mxCell id="YAOJpmCHKWJ_MzP8N5ak-61" value="26" style="rounded=1;whiteSpace=wrap;html=1;fillColor=#d5e8d4;strokeColor=#82b366;" vertex="1" parent="1">
          <mxGeometry x="680" y="400" width="20" height="20" as="geometry" />
        </mxCell>
        <mxCell id="YAOJpmCHKWJ_MzP8N5ak-62" value="28" style="rounded=1;whiteSpace=wrap;html=1;fillColor=#d5e8d4;strokeColor=#82b366;" vertex="1" parent="1">
          <mxGeometry x="720" y="400" width="60" height="20" as="geometry" />
        </mxCell>
        <mxCell id="YAOJpmCHKWJ_MzP8N5ak-63" value="27" style="rounded=1;whiteSpace=wrap;html=1;fillColor=#d5e8d4;strokeColor=#82b366;" vertex="1" parent="1">
          <mxGeometry x="700" y="400" width="20" height="20" as="geometry" />
        </mxCell>
        <mxCell id="YAOJpmCHKWJ_MzP8N5ak-64" value="29" style="rounded=1;whiteSpace=wrap;html=1;fillColor=#d5e8d4;strokeColor=#82b366;" vertex="1" parent="1">
          <mxGeometry x="780" y="400" width="60" height="20" as="geometry" />
        </mxCell>
        <mxCell id="YAOJpmCHKWJ_MzP8N5ak-65" value="30" style="rounded=1;whiteSpace=wrap;html=1;fillColor=#d5e8d4;strokeColor=#82b366;" vertex="1" parent="1">
          <mxGeometry x="840" y="400" width="60" height="20" as="geometry" />
        </mxCell>
        <mxCell id="YAOJpmCHKWJ_MzP8N5ak-74" style="edgeStyle=orthogonalEdgeStyle;rounded=0;orthogonalLoop=1;jettySize=auto;html=1;exitX=0.5;exitY=0;exitDx=0;exitDy=0;fillColor=#f8cecc;strokeColor=#b85450;" edge="1" parent="1" source="YAOJpmCHKWJ_MzP8N5ak-66">
          <mxGeometry relative="1" as="geometry">
            <mxPoint x="570" y="360" as="targetPoint" />
            <Array as="points">
              <mxPoint x="930" y="340" />
              <mxPoint x="570" y="340" />
            </Array>
          </mxGeometry>
        </mxCell>
        <mxCell id="YAOJpmCHKWJ_MzP8N5ak-75" value="Even parity" style="edgeLabel;html=1;align=center;verticalAlign=middle;resizable=0;points=[];labelBackgroundColor=none;" vertex="1" connectable="0" parent="YAOJpmCHKWJ_MzP8N5ak-74">
          <mxGeometry x="0.0366" y="1" relative="1" as="geometry">
            <mxPoint y="-8" as="offset" />
          </mxGeometry>
        </mxCell>
        <mxCell id="YAOJpmCHKWJ_MzP8N5ak-66" value="31" style="rounded=1;whiteSpace=wrap;html=1;fillColor=#d5e8d4;strokeColor=#82b366;" vertex="1" parent="1">
          <mxGeometry x="900" y="400" width="60" height="20" as="geometry" />
        </mxCell>
        <mxCell id="YAOJpmCHKWJ_MzP8N5ak-68" value="Valididy" style="rounded=1;whiteSpace=wrap;html=1;fillColor=#fff2cc;strokeColor=#d6b656;" vertex="1" parent="1">
          <mxGeometry x="720" y="420" width="60" height="30" as="geometry" />
        </mxCell>
        <mxCell id="YAOJpmCHKWJ_MzP8N5ak-69" value="User status bit" style="rounded=1;whiteSpace=wrap;html=1;fillColor=#fff2cc;strokeColor=#d6b656;" vertex="1" parent="1">
          <mxGeometry x="780" y="420" width="60" height="30" as="geometry" />
        </mxCell>
        <mxCell id="YAOJpmCHKWJ_MzP8N5ak-70" value="Channel status bit" style="rounded=1;whiteSpace=wrap;html=1;fillColor=#fff2cc;strokeColor=#d6b656;" vertex="1" parent="1">
          <mxGeometry x="840" y="420" width="60" height="30" as="geometry" />
        </mxCell>
        <mxCell id="YAOJpmCHKWJ_MzP8N5ak-71" value="Parity" style="rounded=1;whiteSpace=wrap;html=1;fillColor=#f8cecc;strokeColor=#b85450;" vertex="1" parent="1">
          <mxGeometry x="900" y="420" width="60" height="30" as="geometry" />
        </mxCell>
        <mxCell id="YAOJpmCHKWJ_MzP8N5ak-72" value="" style="endArrow=none;html=1;rounded=0;" edge="1" parent="1">
          <mxGeometry width="50" height="50" relative="1" as="geometry">
            <mxPoint x="240" y="390" as="sourcePoint" />
            <mxPoint x="720" y="390" as="targetPoint" />
            <Array as="points">
              <mxPoint x="240" y="380" />
              <mxPoint x="720" y="380" />
            </Array>
          </mxGeometry>
        </mxCell>
        <mxCell id="YAOJpmCHKWJ_MzP8N5ak-83" value="Audio data in LSB-first format with optional aux bits" style="edgeLabel;html=1;align=center;verticalAlign=middle;resizable=0;points=[];labelBackgroundColor=none;" vertex="1" connectable="0" parent="YAOJpmCHKWJ_MzP8N5ak-72">
          <mxGeometry x="-0.1341" y="1" relative="1" as="geometry">
            <mxPoint x="43" y="-6" as="offset" />
          </mxGeometry>
        </mxCell>
        <mxCell id="YAOJpmCHKWJ_MzP8N5ak-73" value="" style="endArrow=none;html=1;rounded=0;fillColor=#f8cecc;strokeColor=#b85450;" edge="1" parent="1">
          <mxGeometry width="50" height="50" relative="1" as="geometry">
            <mxPoint x="240" y="370" as="sourcePoint" />
            <mxPoint x="900" y="390" as="targetPoint" />
            <Array as="points">
              <mxPoint x="240" y="360" />
              <mxPoint x="900" y="360" />
            </Array>
          </mxGeometry>
        </mxCell>
      </root>
    </mxGraphModel>
  </diagram>
</mxfile>
